<svg xmlns="http://www.w3.org/2000/svg" viewBox="0 0 190.77 199.69"><defs><style>.cls-1{fill:#f2c15c;}.cls-2{fill:#ffc44f;}.cls-3{fill:#fcaf14;}.cls-4{fill:#914a2c;}.cls-5{fill:#d91a1a;}.cls-6{fill:#f2d335;}.cls-7{fill:#aebf2b;}.cls-10,.cls-8{fill:#7c3515;}.cls-9{fill:#ba1616;}.cls-10,.cls-11,.cls-12{font-size:56.73px;font-family:Milkshake, Milkshake;}.cls-10{stroke:#7c3515;stroke-width:12px;}.cls-10,.cls-11{stroke-miterlimit:10;}.cls-11{fill:#fff;stroke:#fff;stroke-width:6px;}.cls-12{fill:#ed140a;}</style></defs><title>Asset 1</title><g id="Layer_2" data-name="Layer 2"><g id="Objects"><polygon class="cls-1" points="95.76 73.82 103.72 0 98.37 74.06 119.38 2.84 100.9 74.75 134.29 8.44 103.26 75.89 147.95 16.6 105.38 77.43 159.94 27.08 107.19 79.33 169.87 39.52 108.63 81.51 177.41 53.54 109.66 83.92 182.33 68.68 110.25 86.48 184.47 84.46 110.36 89.1 183.75 100.36 110.01 91.69 180.21 115.88 109.2 94.19 173.96 130.52 107.96 96.49 165.19 143.81 106.33 98.54 104.35 100.27 102.1 101.61 99.65 102.53 97.07 103 94.45 103 91.87 102.53 89.42 101.61 87.17 100.27 85.19 98.54 26.33 143.81 83.56 96.49 17.56 130.52 82.32 94.19 11.31 115.88 81.51 91.69 7.76 100.36 81.16 89.1 7.05 84.46 81.27 86.48 9.19 68.68 81.86 83.92 14.11 53.54 82.89 81.51 21.65 39.52 84.33 79.33 31.58 27.08 86.14 77.43 43.56 16.6 88.26 75.89 57.23 8.44 90.62 74.75 72.14 2.84 93.15 74.06 87.8 0 95.76 73.82"/><path class="cls-2" d="M66,50c7.44-6.14,18-9.52,29.75-9.52s22.31,3.38,29.75,9.52,11.68,15,12.14,25.41H53.87C54.33,64.9,58.5,56.15,66,50Z"/><path class="cls-3" d="M119.71,136.81H71.8a20.69,20.69,0,0,1-17.24-9.27c21.34-.19,42.18-.18,63.57,0h0a1.55,1.55,0,0,0,0-3.09c-22-.22-43.35-.22-65.29,0A20.7,20.7,0,0,1,51.19,118h89.13A20.71,20.71,0,0,1,119.71,136.81Z"/><path class="cls-4" d="M103.33,108.94l4,4a1.61,1.61,0,0,0,.29.24l.09,0,.23.13.12,0,.23.07h.12a1.81,1.81,0,0,0,.23,0h0l.15,0h.17l.17,0,.17,0,.17-.09a.61.61,0,0,0,.14-.07,2,2,0,0,0,.29-.22l4.36-4.08h23.46v5.33H54.07v-5.33Z"/><path class="cls-5" d="M54.22,101.92h0a3.15,3.15,0,0,1,3.15-3.15h31.5A3.15,3.15,0,0,1,92,101.92h0a3.15,3.15,0,0,1-3.15,3.15H57.37A3.15,3.15,0,0,1,54.22,101.92Z"/><path class="cls-6" d="M108.66,109.08l-3.23-3.29L93,93.11l0-.06.22-.24.86-1a1.31,1.31,0,0,1,1.13-.48h.06a1.28,1.28,0,0,1,.63.25,1.34,1.34,0,0,1,.4.49L98,95.84a5,5,0,0,0,8.87.41l1.26-2.12a1.3,1.3,0,0,1,.91-.62l.2,0a1.27,1.27,0,0,1,.48.08l.08,0,.06,0,.25.15,3.11,2.54a5,5,0,0,0,7.23-.91l3.66-5a1.32,1.32,0,0,1,1.1-.54,1.28,1.28,0,0,1,1.07.59l.86,1.3Z"/><path class="cls-5" d="M133.3,98.77a3.15,3.15,0,0,1,3.15,3.15h0a3.15,3.15,0,0,1-3.15,3.15h-7.46a3.15,3.15,0,0,1-3.15-3.15h0a3.15,3.15,0,0,1,3.15-3.15Z"/><path class="cls-7" d="M143.21,84.78a1.26,1.26,0,0,1-1.49.72,5,5,0,0,0-3.13.28l-.09,0-.31.16-.11.06a5.25,5.25,0,0,0-.49.33l-.13.1-.13.09-.12.12-.08.08a4.92,4.92,0,0,0-1.52,3l0,.29a1.21,1.21,0,0,0,0,.19,4.51,4.51,0,0,0,0,.52l.12,1.89.06,1a1.23,1.23,0,0,1-.66,1.23,1.16,1.16,0,0,1-.24.11,1.32,1.32,0,0,1-1.28-.24,1.87,1.87,0,0,1-.25-.29l-1-1.47-1.23-1.85h0l-1.73-2.6h0A3.64,3.64,0,0,0,129,88a5,5,0,0,0-7.88.28l-3.67,5a1.32,1.32,0,0,1-.9.53h-.27a1.32,1.32,0,0,1-.73-.3l-2.27-1.85-.84-.69-.16-.11a5,5,0,0,0-3.36-1,3.33,3.33,0,0,0-.54.07,4.92,4.92,0,0,0-1.4.47l-.12.06-.19.12-.27.16,0,0A4.94,4.94,0,0,0,105,92.24l-1.26,2.12a1.3,1.3,0,0,1-1.2.64,1.28,1.28,0,0,1-1.13-.75l-1.81-3.81a5,5,0,0,0-8.43-1l-.86,1a1.6,1.6,0,0,1-.24.22l-.09,0a.56.56,0,0,1-.17.09h0l0,0h0l-.14,0h-.15a1.29,1.29,0,0,1-.39,0l-.14,0a.16.16,0,0,1-.09,0,1.27,1.27,0,0,1-.23-.12l-.05,0a2.55,2.55,0,0,1-.24-.23l-2-2.46a5,5,0,0,0-8.25.64l-3.79,6.52a1.33,1.33,0,0,1-2.35-.1l-1.59-3.41a5,5,0,0,0-4-2.88l-.52,0H65.6l-.27,0a2.07,2.07,0,0,0-.35,0l-.28,0-.32.07L64.1,89l-.3.11-.27.12-.28.15L63,89.5l-.28.2-.21.16-.29.26-.17.16a4.63,4.63,0,0,0-.4.48l-3.26,4.38A1.33,1.33,0,0,1,56,94.23l.33-3.49a4.73,4.73,0,0,0,0-.53V90l0-.27c0-.1,0-.2,0-.3v0a4.86,4.86,0,0,0-1-2.27l0,0L55,86.8s0,0-.05,0l-.28-.27-.21-.16-.15-.12L54,86,53.87,86a5,5,0,0,0-3.7-.58l-.37.09a1.32,1.32,0,0,1-1.13-2.32l5.1-4.08h83.94l5.14,4.11A1.26,1.26,0,0,1,143.21,84.78Z"/><path class="cls-3" d="M125.51,60.39c-7.44-6.14-18-9.52-29.75-9.52S73.45,54.25,66,60.39a32.47,32.47,0,0,0-10.26,15h80A32.55,32.55,0,0,0,125.51,60.39Z"/><path class="cls-2" d="M118.15,127.57h0c-21.39-.21-42.23-.22-63.57,0a20.69,20.69,0,0,0,17.24,9.27h47.91a20.71,20.71,0,0,0,18-10.45h-18A1.55,1.55,0,0,1,118.15,127.57Z"/><path class="cls-8" d="M145.16,80.27l-3.77-3v-.05C141.35,53,123,36.72,95.76,36.72S50.17,53,50.13,77.21v0l-3.77,3a5,5,0,0,0,4,8.88v25.15h-1.1a1.85,1.85,0,0,0-1.85,1.85A24.39,24.39,0,0,0,49.49,126l.61,1.27a24.43,24.43,0,0,0,21.7,13.27h47.91a24.43,24.43,0,0,0,24.4-24.4,1.85,1.85,0,0,0-1.85-1.85h-.87V89.2a5,5,0,0,0,3.77-8.93ZM66,50c7.44-6.14,18-9.52,29.75-9.52s22.31,3.38,29.75,9.52,11.68,15,12.14,25.41H53.87C54.33,64.9,58.5,56.15,66,50Zm53.7,86.86H71.8a20.69,20.69,0,0,1-17.24-9.27c21.34-.19,42.18-.18,63.57,0h0a1.55,1.55,0,0,0,0-3.09c-22-.22-43.35-.22-65.29,0A20.7,20.7,0,0,1,51.19,118h89.13A20.71,20.71,0,0,1,119.71,136.81Zm-16.38-27.87,4,4a1.61,1.61,0,0,0,.29.24l.09,0,.23.13.12,0,.23.07h.12a1.81,1.81,0,0,0,.23,0h0l.15,0h.17l.17,0,.17,0,.17-.09a.61.61,0,0,0,.14-.07,2,2,0,0,0,.29-.22l4.36-4.08h23.46v5.33H54.07v-5.33Zm-49.11-7h0a3.15,3.15,0,0,1,3.15-3.15h31.5A3.15,3.15,0,0,1,92,101.92h0a3.15,3.15,0,0,1-3.15,3.15H57.37A3.15,3.15,0,0,1,54.22,101.92Zm54.44,7.16-3.23-3.29L93,93.11l0-.06.22-.24.86-1a1.31,1.31,0,0,1,1.13-.48h.06a1.28,1.28,0,0,1,.63.25,1.34,1.34,0,0,1,.4.49L98,95.84a5,5,0,0,0,8.87.41l1.26-2.12a1.3,1.3,0,0,1,.91-.62l.2,0a1.27,1.27,0,0,1,.48.08l.08,0,.06,0,.25.15,3.11,2.54a5,5,0,0,0,7.23-.91l3.66-5a1.32,1.32,0,0,1,1.1-.54,1.28,1.28,0,0,1,1.07.59l.86,1.3ZM133.3,98.77a3.15,3.15,0,0,1,3.15,3.15h0a3.15,3.15,0,0,1-3.15,3.15h-7.46a3.15,3.15,0,0,1-3.15-3.15h0a3.15,3.15,0,0,1,3.15-3.15Zm9.91-14a1.26,1.26,0,0,1-1.49.72,5,5,0,0,0-3.13.28l-.09,0-.31.16-.11.06a5.25,5.25,0,0,0-.49.33l-.13.1-.13.09-.12.12-.08.08a4.92,4.92,0,0,0-1.52,3l0,.29a1.21,1.21,0,0,0,0,.19,4.51,4.51,0,0,0,0,.52l.12,1.89.06,1a1.23,1.23,0,0,1-.66,1.23,1.16,1.16,0,0,1-.24.11,1.32,1.32,0,0,1-1.28-.24,1.87,1.87,0,0,1-.25-.29l-1-1.47-1.23-1.85h0l-1.73-2.6h0A3.64,3.64,0,0,0,129,88a5,5,0,0,0-7.88.28l-3.67,5a1.32,1.32,0,0,1-.9.53h-.27a1.32,1.32,0,0,1-.73-.3l-2.27-1.85-.84-.69-.16-.11a5,5,0,0,0-3.36-1,3.33,3.33,0,0,0-.54.07,4.92,4.92,0,0,0-1.4.47l-.12.06-.19.12-.27.16,0,0A4.94,4.94,0,0,0,105,92.24l-1.26,2.12a1.3,1.3,0,0,1-1.2.64,1.28,1.28,0,0,1-1.13-.75l-1.81-3.81a5,5,0,0,0-8.43-1l-.86,1a1.6,1.6,0,0,1-.24.22l-.09,0a.56.56,0,0,1-.17.09h0l0,0h0l-.14,0h-.15a1.29,1.29,0,0,1-.39,0l-.14,0a.16.16,0,0,1-.09,0,1.27,1.27,0,0,1-.23-.12l-.05,0a2.55,2.55,0,0,1-.24-.23l-2-2.46a5,5,0,0,0-8.25.64l-3.79,6.52a1.33,1.33,0,0,1-2.35-.1l-1.59-3.41a5,5,0,0,0-4-2.88l-.52,0H65.6l-.27,0a2.07,2.07,0,0,0-.35,0l-.28,0-.32.07L64.1,89l-.3.11-.27.12-.28.15L63,89.5l-.28.2-.21.16-.29.26-.17.16a4.63,4.63,0,0,0-.4.48l-3.26,4.38A1.33,1.33,0,0,1,56,94.23l.33-3.49a4.73,4.73,0,0,0,0-.53V90l0-.27c0-.1,0-.2,0-.3v0a4.86,4.86,0,0,0-1-2.27l0,0L55,86.8s0,0-.05,0l-.28-.27-.21-.16-.15-.12L54,86,53.87,86a5,5,0,0,0-3.7-.58l-.37.09a1.32,1.32,0,0,1-1.13-2.32l5.1-4.08h83.94l5.14,4.11A1.26,1.26,0,0,1,143.21,84.78Z"/><path class="cls-9" d="M82.49,103h4.38a.93.93,0,1,0,0-1.85H82.49a.93.93,0,1,0,0,1.85Z"/><path class="cls-9" d="M59.59,103h20a.93.93,0,1,0,0-1.85h-20a.93.93,0,0,0,0,1.85Z"/><path class="cls-9" d="M126.71,103h6.59a.93.93,0,1,0,0-1.85h-6.59a.93.93,0,1,0,0,1.85Z"/><path class="cls-8" d="M115.35,51a2.32,2.32,0,1,0,2.31,2.32A2.31,2.31,0,0,0,115.35,51Z"/><circle class="cls-8" cx="102" cy="63.46" r="2.31"/><path class="cls-8" d="M69.59,61.14a2.32,2.32,0,1,0,2.31,2.32A2.31,2.31,0,0,0,69.59,61.14Z"/><circle class="cls-8" cx="99.69" cy="49.13" r="2.31"/><path class="cls-8" d="M86.87,53.3a2.31,2.31,0,1,0,2.31,2.31A2.3,2.3,0,0,0,86.87,53.3Z"/><circle class="cls-8" cx="124.78" cy="65.77" r="2.31" transform="matrix(0.99, -0.16, 0.16, 0.99, -8.87, 20.68)"/><circle class="cls-8" cx="75.23" cy="49.9" r="2.31"/><path class="cls-8" d="M130,124.48h-4.89a1.55,1.55,0,0,0,0,3.09H130a1.55,1.55,0,0,0,0-3.09Z"/><text class="cls-10" transform="matrix(1, -0.16, 0.02, 1, 12.87, 163.56)">Burger</text><text class="cls-11" transform="matrix(1, -0.16, 0.02, 1, 13.62, 160.28)">Burger</text><text class="cls-12" transform="matrix(1, -0.16, 0.02, 1, 13.62, 160.28)">Burger</text></g></g></svg>